HIERARCHY
ROOT Hips
{
	OFFSET -21.947001 39.810204 44.525997
	CHANNELS 6 Xposition Yposition Zposition Zrotation Xrotation Yrotation
	JOINT Chest
	{
		OFFSET -0.201599 0.334099 6.453201
		CHANNELS 6 Xposition Yposition Zposition Zrotation Xrotation Yrotation
		JOINT Chest2
		{
			OFFSET 0.000000 0.000000 3.568001
			CHANNELS 6 Xposition Yposition Zposition Zrotation Xrotation Yrotation
			JOINT Neck
			{
				OFFSET 0.000000 0.000000 8.296402
				CHANNELS 6 Xposition Yposition Zposition Zrotation Xrotation Yrotation
				JOINT Head
				{
					OFFSET 0.000000 0.000000 2.173901
					CHANNELS 6 Xposition Yposition Zposition Zrotation Xrotation Yrotation
					End Site
					{
						OFFSET 0.000000 0.000000 7.891998
					}
				}
			}
			JOINT LeftCollar
			{
				OFFSET 1.927601 0.221401 6.049000
				CHANNELS 6 Xposition Yposition Zposition Zrotation Xrotation Yrotation
				JOINT LeftShoulder
				{
					OFFSET 4.959700 0.000000 0.000000
					CHANNELS 6 Xposition Yposition Zposition Zrotation Xrotation Yrotation
					JOINT LeftElbow
					{
						OFFSET 0.000000 0.000000 -8.654202
						CHANNELS 6 Xposition Yposition Zposition Zrotation Xrotation Yrotation
						JOINT LeftWrist
						{
							OFFSET 0.000000 0.000000 -13.864101
							CHANNELS 6 Xposition Yposition Zposition Zrotation Xrotation Yrotation
							End Site
							{
								OFFSET 0.000000 0.000000 -2.173901
							}
						}
					}
				}
			}
			JOINT RightCollar
			{
				OFFSET -3.155701 -0.764999 6.687801
				CHANNELS 6 Xposition Yposition Zposition Zrotation Xrotation Yrotation
				JOINT RightShoulder
				{
					OFFSET -3.592899 0.000000 0.000000
					CHANNELS 6 Xposition Yposition Zposition Zrotation Xrotation Yrotation
					JOINT RightElbow
					{
						OFFSET 0.000000 0.000000 -10.352398
						CHANNELS 6 Xposition Yposition Zposition Zrotation Xrotation Yrotation
						JOINT RightWrist
						{
							OFFSET 0.000000 0.000000 -12.750301
							CHANNELS 6 Xposition Yposition Zposition Zrotation Xrotation Yrotation
							End Site
							{
								OFFSET 0.000000 0.000000 -2.173901
							}
						}
					}
				}
			}
		}
	}
	JOINT LeftHip
	{
		OFFSET 2.460600 -0.518101 -2.735500
		CHANNELS 6 Xposition Yposition Zposition Zrotation Xrotation Yrotation
		JOINT LeftKnee
		{
			OFFSET 0.000000 -0.000004 -17.005899
			CHANNELS 6 Xposition Yposition Zposition Zrotation Xrotation Yrotation
			JOINT LeftAnkle
			{
				OFFSET 0.000000 0.000000 -19.194401
				CHANNELS 6 Xposition Yposition Zposition Zrotation Xrotation Yrotation
				End Site
				{
					OFFSET 0.000000 -8.134600 0.000000
				}
			}
		}
	}
	JOINT RightHip
	{
		OFFSET -3.115499 -0.679600 -2.320301
		CHANNELS 6 Xposition Yposition Zposition Zrotation Xrotation Yrotation
		JOINT RightKnee
		{
			OFFSET 0.000000 -0.000004 -17.680401
			CHANNELS 6 Xposition Yposition Zposition Zrotation Xrotation Yrotation
			JOINT RightAnkle
			{
				OFFSET 0.000000 0.000000 -16.993797
				CHANNELS 6 Xposition Yposition Zposition Zrotation Xrotation Yrotation
				End Site
				{
					OFFSET 0.000000 -8.842300 0.000000
				}
			}
		}
	}
}
MOTION
Frames: 4
Frame Time: 0.041667
-17.214895 24.180206 41.392696 2522.390172 11.288607 -0.714946 -0.201602 0.334105 6.453202 -3.744368 15.325401 6.033936 -0.000001 0.000001 3.567989 -4.155799 -5.874037 -1.869598 0.000004 -0.000001 8.296400 183.612984 -198.324569 178.744930 0.000002 0.000006 2.173896 0.135836 3.938735 2.035650 1.927601 0.221404 6.049001 -24.106693 7.246016 2.371420 4.959702 -0.000000 0.000007 155.304295 177.019529 97.827106 -0.000004 -0.000002 -8.654199 1.852365 -66.220132 43.664126 0.000001 0.000002 -13.864097 4193.887835 -144.474210 238.736695 -3.155706 -0.764997 6.687807 37.568632 7.723025 -4.749023 -3.592898 -0.000005 0.000005 -149.674593 165.248436 290.082259 0.000005 -0.000007 -10.352396 -264.716959 -59.364350 -275.647884 -0.000003 -0.000004 -12.750299 -109.620097 170.491904 -128.324652 2.460598 -0.518094 -2.735497 40.604737 -32.775445 20.497541 -0.000006 0.000003 -17.005894 -287.857749 151.440457 -128.225860 -0.000004 0.000004 -19.194405 585.169682 172.374877 203.997998 -3.115498 -0.679587 -2.320304 -34.026042 -36.167474 -22.148922 -0.000002 -0.000009 -17.680397 -776.841892 167.692127 -241.208185 0.000005 0.000000 -16.993795 1003.717281 14.824857 -400.062184
-17.265900 24.032501 41.659592 2522.152153 10.753530 -0.764900 -0.201600 0.334094 6.453204 -3.504918 14.781728 6.220445 0.000001 0.000004 3.567998 -3.952114 -5.868736 -1.805494 -0.000000 0.000002 8.296390 183.491830 -199.042627 178.441479 -0.000000 -0.000002 2.173899 0.221056 4.195404 1.981000 1.927603 0.221400 6.048986 -24.252841 7.414519 2.417428 4.959705 -0.000003 0.000009 154.895754 177.082613 95.999067 -0.000000 0.000001 -8.654194 4.580380 -67.158791 46.413751 0.000000 -0.000000 -13.864100 4189.338601 -143.420053 238.278471 -3.155703 -0.765000 6.687798 37.259829 7.841780 -4.446001 -3.592897 0.000006 0.000014 -150.511934 165.105753 292.701063 0.000002 0.000000 -10.352394 -266.125398 -59.669742 -276.505674 -0.000004 -0.000005 -12.750294 -107.091561 169.791481 -126.179726 2.460600 -0.518100 -2.735502 38.442139 -31.890167 18.379433 0.000000 -0.000006 -17.005898 -284.108931 150.593199 -130.452665 -0.000004 0.000006 -19.194403 584.105483 171.801278 202.088331 -3.115495 -0.679596 -2.320298 -31.708098 -35.110611 -20.317783 -0.000004 -0.000007 -17.680401 -778.577799 166.923949 -239.733957 0.000003 -0.000002 -16.993795 1004.146326 14.944205 -399.804249
-17.328394 23.879204 41.931698 2522.276518 10.222340 -0.558077 -0.201597 0.334107 6.453201 -3.551947 14.280945 6.143200 0.000001 0.000009 3.568006 -3.919476 -5.832923 -1.778311 -0.000002 0.000002 8.296396 183.584611 -199.569644 177.957191 0.000002 -0.000001 2.173907 0.241733 4.291005 2.113670 1.927603 0.221397 6.048999 -24.100425 7.356608 2.321207 4.959700 0.000001 0.000002 154.391003 176.856943 94.426102 0.000000 -0.000001 -8.654196 7.546916 -67.909586 49.041233 0.000001 0.000000 -13.864092 4186.078907 -142.968208 238.319070 -3.155705 -0.764997 6.687796 37.125241 7.614286 -4.114062 -3.592895 -0.000004 -0.000003 -151.420950 164.853391 295.005269 0.000002 -0.000005 -10.352390 -267.784943 -59.832942 -277.365076 0.000003 -0.000004 -12.750299 -104.573864 168.834381 -124.882550 2.460598 -0.518098 -2.735506 35.401977 -31.092705 15.816602 0.000002 -0.000001 -17.005898 -279.737719 149.804750 -133.029204 -0.000004 0.000001 -19.194401 582.864903 171.099968 200.369173 -3.115498 -0.679593 -2.320304 -30.070157 -33.835722 -19.017644 -0.000004 -0.000004 -17.680401 -780.272778 166.053934 -238.352019 0.000001 -0.000001 -16.993795 1004.672852 14.954390 -399.649996
-17.385798 23.717899 42.205795 2522.205265 9.650618 -0.580216 -0.201602 0.334093 6.453200 -3.480403 13.833352 6.367163 -0.000000 0.000004 3.567994 -3.856528 -5.827027 -1.759746 0.000002 0.000004 8.296389 183.734274 -200.044097 177.397307 0.000001 0.000001 2.173908 0.105222 4.484156 2.049874 1.927599 0.221400 6.048990 -24.096672 7.405469 2.267005 4.959704 -0.000006 -0.000008 154.048059 176.783177 92.899213 0.000005 -0.000002 -8.654190 10.169972 -68.592885 51.370877 -0.000001 0.000001 -13.864095 4184.461956 -140.737550 236.650154 -3.155706 -0.765001 6.687799 36.984160 7.548943 -3.867922 -3.592901 -0.000000 0.000007 -153.068228 163.500290 297.361766 0.000010 -0.000003 -10.352388 -271.841201 -59.850557 -278.919299 0.000001 -0.000004 -12.750300 -101.404704 167.915160 -123.465068 2.460595 -0.518104 -2.735501 32.879714 -29.950414 13.590396 0.000000 -0.000004 -17.005898 -275.156903 149.149270 -135.789201 -0.000003 0.000001 -19.194401 581.483729 170.285960 198.445887 -3.115500 -0.679601 -2.320308 -27.868898 -32.571512 -17.382884 -0.000004 -0.000006 -17.680397 -782.176270 165.227125 -236.837574 0.000005 -0.000001 -16.993797 1005.117306 14.947572 -399.557980
